<?xml version="1.0" encoding="UTF-8" standalone="no"?> <svg xmlns="http://www.w3.org/2000/svg" xmlns:xlink="http://www.w3.org/1999/xlink" viewBox="0 0 64 64"><defs><style>.cls-1{fill:url(#linear-gradient);}.cls-2{fill:url(#linear-gradient-2);}</style><linearGradient id="linear-gradient" x1="17.29" y1="32" x2="58.9" y2="32" gradientUnits="userSpaceOnUse"><stop offset="0" stop-color="#17a6d7"/><stop offset="1" stop-color="#9d31fe"/></linearGradient><linearGradient id="linear-gradient-2" x1="5.11" y1="32" x2="46.72" y2="32" xlink:href="#linear-gradient"/></defs><g id="Layer_32" data-name="Layer 32"><path class="cls-1" d="M58.1,4.32a1.51,1.51,0,0,0-1.55.09L17.94,30.76a1.51,1.51,0,0,0,0,2.48L56.55,59.59a1.51,1.51,0,0,0,2.35-1.24V5.65A1.51,1.51,0,0,0,58.1,4.32ZM55.9,55.51,21.44,32,55.9,8.49Z"/><path class="cls-2" d="M46.06,57.11,9.26,32,46.06,6.89a1.5,1.5,0,1,0-1.69-2.48L5.76,30.76a1.51,1.51,0,0,0,0,2.48L44.37,59.59A1.5,1.5,0,0,0,46.06,57.11Z"/></g></svg>